<svg width="64" height="64" viewBox="0 0 64 64" xmlns="http://www.w3.org/2000/svg">
  <!-- Dégradé principal -->
  <defs>
    <linearGradient id="grad" x1="0%" y1="0%" x2="100%" y2="100%">
      <stop offset="0%" style="stop-color:#667eea;stop-opacity:1" />
      <stop offset="100%" style="stop-color:#764ba2;stop-opacity:1" />
    </linearGradient>
  </defs>
  
  <!-- Fond circulaire -->
  <circle cx="32" cy="32" r="30" fill="url(#grad)"/>
  
  <!-- Toque de graduation simplifiée -->
  <g transform="translate(32, 24)">
    <ellipse cx="0" cy="3" rx="14" ry="2.5" fill="#fff"/>
    <path d="M -11,3 L -9,-2 L 9,-2 L 11,3 Z" fill="#fff"/>
    <rect x="-8" y="-5" width="16" height="1.5" fill="#fff"/>
    <circle cx="0" cy="-6" r="1.5" fill="#10b981"/>
  </g>
  
  <!-- Bulle de chat -->
  <g transform="translate(32, 42)">
    <path d="M -11,-3 Q -11,-8 -6,-8 L 6,-8 Q 11,-8 11,-3 L 11,2 Q 11,7 6,7 L -3,7 L -6,10 L -5.5,7 L -6,7 Q -11,7 -11,2 Z" 
          fill="#fff"/>
    <circle cx="-5" cy="-1" r="1.5" fill="#10b981"/>
    <circle cx="0" cy="-1" r="1.5" fill="#10b981"/>
    <circle cx="5" cy="-1" r="1.5" fill="#10b981"/>
  </g>
</svg>
