<svg width="300" height="80" viewBox="0 0 300 80" xmlns="http://www.w3.org/2000/svg">
  <!-- Dégradés -->
  <defs>
    <linearGradient id="brandGrad" x1="0%" y1="0%" x2="100%" y2="100%">
      <stop offset="0%" style="stop-color:#667eea;stop-opacity:1" />
      <stop offset="100%" style="stop-color:#764ba2;stop-opacity:1" />
    </linearGradient>
  </defs>
  
  <!-- Logo simplifié -->
  <g transform="translate(40, 40)">
    <circle cx="0" cy="0" r="35" fill="url(#brandGrad)"/>
    
    <!-- Toque + Bulle simplifiée -->
    <g transform="translate(0, -8)">
      <ellipse cx="0" cy="2" rx="18" ry="3" fill="#fff" opacity="0.9"/>
      <path d="M -14,2 L -12,-2 L 12,-2 L 14,2 Z" fill="#fff" opacity="0.95"/>
      <rect x="-10" y="-5" width="20" height="2" fill="#fff" opacity="0.95"/>
      <circle cx="0" cy="-7" r="1.5" fill="#10b981"/>
    </g>
    
    <g transform="translate(0, 12)">
      <path d="M -14,-3 Q -14,-10 -8,-10 L 8,-10 Q 14,-10 14,-3 L 14,2 Q 14,8 8,8 L -4,8 L -8,12 L -7,8 L -8,8 Q -14,8 -14,2 Z" 
            fill="#fff" opacity="0.95"/>
      <circle cx="-7" cy="-2" r="1.5" fill="#10b981"/>
      <circle cx="0" cy="-2" r="1.5" fill="#10b981"/>
      <circle cx="7" cy="-2" r="1.5" fill="#10b981"/>
    </g>
  </g>
  
  <!-- Texte horizontal -->
  <g transform="translate(95, 40)">
    <text x="0" y="0" font-family="'Inter', 'Segoe UI', Arial, sans-serif" font-size="24" font-weight="700" fill="#2d3748">
      ICT University
    </text>
    <text x="0" y="22" font-family="'Inter', 'Segoe UI', Arial, sans-serif" font-size="13" font-weight="500" fill="#667eea">
      Chatbot de Préinscription
    </text>
  </g>
</svg>
